<svg xmlns:inkscape="http://www.inkscape.org/namespaces/inkscape" xmlns:sodipodi="http://sodipodi.sourceforge.net/DTD/sodipodi-0.dtd" xmlns="http://www.w3.org/2000/svg" xmlns:svg="http://www.w3.org/2000/svg" version="1.1" id="svg2" width="782.66669" height="321.33334" viewBox="0 0 782.66669 321.33334" sodipodi:docname="Academic_Logo.eps">
  <defs id="defs6" fill="#FA6900"/>
  <sodipodi:namedview id="namedview4" pagecolor="#e0e4cc" bordercolor="#FA6900" borderopacity="0.25" inkscape:showpageshadow="2" inkscape:pageopacity="0.0" inkscape:pagecheckerboard="0" inkscape:deskcolor="#E0E4CC" fill="#FA6900"/>
  <g id="g8" inkscape:groupmode="layer" inkscape:label="ink_ext_XXXXXX" transform="matrix(1.3333333,0,0,-1.3333333,0,321.33333)">
    <g id="g10" transform="scale(0.1)">
      <path d="m 2352.82,71.3438 c 97.13,89.7302 178.14,196.6402 238.25,315.8862 H 2217.64 L 2352.82,171.691 Z M 2668.2,586.234 c 9.72,34.797 17.8,70.278 24.12,106.368 -10.81,2.586 -21.62,3.746 -30.8,3.746 h -273.7 V 586.035 h 273.7 c 2.13,0 4.36,0.067 6.68,0.199 z m -0.56,599.036 c -5.78,20.54 -12.17,40.82 -19.08,60.86 -44.17,25.93 -78.4,66.35 -95.49,115.51 v -139.67 h -136.49 v 164.75 l -55.67,-57.71 -55.65,57.7 v -164.74 h -136.49 v 482.01 l 192.14,-194.21 87.49,88.42 c -203.08,240.79 -506.99,393.76 -846.66,393.76 -95.13,0 -187.46,-12.01 -275.55,-34.57 v -27.22 l -17.23,-17.24 v -111.99 l 140.69,-39.05 -1.33,-37.18 -2.74,-60.54 -20.04,-9.7 -0.16,-20.92 44.2,-11.3 v -99.52 l -22.29,-6.96 v -315.49 l 92.37,18.71 269.42,-400.992 125.67,20.258 224.87,-358.523 V 719.59 l -139.69,175.562 h 139.69 V 1185.75 H 2648 c 6.55,0 13.11,-0.16 19.64,-0.48 z M 2387.82,986.934 v -91.782 h 242.61 c 29.29,0 69.66,10.536 69.66,46.473 0,35.082 -41.54,45.309 -69.66,45.309 z M 821.891,1670.65 c -202.145,-200.6 -327.348,-478.62 -327.348,-785.9 0,-53.453 3.871,-105.996 11.191,-157.43 l 259.469,298.63 61.973,15.9 v 456.46 l -18.61,10.29 v 91.61 l 35.649,12.78 v 22.45 l -22.324,12.58 v 22.63" style="fill:#ffffff;fill-opacity:1;fill-rule:evenodd;stroke:none" id="path12"/>
      <path d="m 1043.86,1504.43 v -303.17 l -89.934,-21.71 v 294.63 l 89.934,30.25" style="fill:#ffffff;fill-opacity:1;fill-rule:evenodd;stroke:none" id="path14"/>
      <path d="m 423.203,482.82 -34.949,29.891 -12.598,10.418 409.215,470.984 78.031,20.007 v 505.26 l -18.609,10.29 v 39.89 5.5 l 35.648,12.78 v 68.48 l -22.32,12.58 v 36.27 6.83 l 130.957,51.69 v 155.54 l -19.598,9.8 v 53.25 c 104.11,37.53 50.25,68.17 92.2,123.2 14.89,21.88 39.7,33.9 65.51,36.09 l 3.34,263.4 h 7.55 l 7.98,-263.55 c 25.27,-2.54 49.41,-14.53 63.98,-35.95 32.85,-53.72 3.09,-87.98 80.92,-111.42 v -49.09 l -17.23,-17.24 v -153.95 l 139.71,-38.78 -0.31,-8.67 -1.78,-39.28 -20.87,-10.1 -0.54,-71.09 44.42,-11.35 v -10.25 -35.26 l -22.3,-6.96 v -385.45 l 90.28,18.28 21.49,4.36 23.11,-34.4 245.74,-365.746 97.64,15.742 27.24,4.387 19.7,-31.394 380.33,-606.391 V 0.621094 L 2152.24,13.8359 V 117.438 L 1909.17,489.777 1659.98,159.848 V 46.2344 L 1476.49,71.2188 C 1127.02,113.5 894.445,135.797 558.219,215.848 c -39.239,6.898 -84.629,18.648 -132.227,33.07 l -2.789,0.723 v 0.129 C 230.57,308.453 3.35938,409.992 3.35938,409.992 c 0,0 119.40262,-43.722 227.95662,-77.066 45.27,-13.903 120.063,-34.223 191.887,-53.192 z m 668.787,180.883 -660.842,-115.34 368.157,421.789 89.722,23 0.661,540.828 232.612,85.78 V 971.227 l 138.84,153.933 v -8.01 l -138.69,-154.037 -0.15,-0.14 -233.374,-52.719 -0.457,-34.699 234.931,55.824 149.65,169.801 109.05,22.09 v 35.41 h -0.01 v 393.09 l -0.04,0.01 v 2.64 l 1.36,-0.35 3.3,2.06 0.74,-0.18 v -2.09 -429.5 l 128.67,26.06 -407.83,-483.822 -16.3,-2.887 z M 450,495.18 l 0.582,-0.516 641.408,96.602 v -385.18 l 378.76,494.234 434.2,69.789 -408.62,-542.742 -404.34,-51.652 V 154.75 C 867.16,178.789 651.758,218.117 450,270.379 Z m 761.36,1009.25 v -303.17 l 89.94,-10.38 v 294.63 z M 982.859,1958.3 v 13.58 l 101.581,34.5 h 98.08 l 92.66,-24.81 v -15.51 l -93.04,23.73 h -97.7 z m 182.401,-155.37 v 134.93 c 0,15.94 -13.13,28.98 -28.97,28.98 h -0.01 c -15.85,0 -28.98,-13.13 -28.98,-28.98 v -130.27 l 17.13,6.76 z m 22.85,141.59 c 4.1,7.89 12.68,11.41 22.54,8.04 v 0 c 13.8,-4.7 25.09,-21.25 25.09,-36.56 v -132.95 l -15.51,5.34 v 118.3 c 0,15.41 -11.28,31.86 -25.09,36.57 v 0 c -2.44,0.83 -4.8,1.24 -7.03,1.26 z m 58.32,15.36 6.25,-2.63 v -178.93 l -6.25,1.69 z m 0,-199.29 v 0 l -69.58,19.45 v 0 l -53.81,15.05 -238.622,-94.17 v -14.22 l 238.532,90.84 261.94,-71.43 0.7,15.57 z m -231.05,11.66 v 175.39 l 76.57,24.56 v -169.72 l -50.38,-19.89 v 124.1 c 0,15.41 11.29,31.86 25.09,36.57 v 0 c 2.44,0.83 4.79,1.24 7.03,1.26 -4.1,7.89 -12.68,11.41 -22.54,8.04 v 0 c -13.81,-4.7 -25.09,-21.15 -25.09,-36.56 v -139.53 z m -108.638,-180.3 v 75.82 l 215.928,82.13 v -80.31 z m 456.168,0.18 v 96.85 l -7.01,1.7 -0.11,-96.74 -233.09,59.59 -251.61,-90.19 v -12.55 l 252.18,90.53 283.79,-70.57 v 10.09 z M 1121.9,2126.6 c -19.52,-3.04 -37.74,-12.75 -48.9,-29.16 -13.52,-23.26 -18.22,-34.68 -18.75,-62.32 -2.99,-17.03 -16.62,-29.2 -19.36,-34.24 l 40.84,13.23 c 3.93,4.78 10.61,13.71 11.86,20.42 0.46,2.47 0.86,6.15 1.34,10.57 1.53,13.94 3.87,35.27 11.64,53.21 5.2,12.03 10.95,20.02 17.05,25.16 1.41,1.19 2.83,2.23 4.28,3.13 z M 1502.35,178.742 v -47.933 l -378.37,21.703 z" style="fill:#ffffff;fill-opacity:1;fill-rule:evenodd;stroke:none" id="path16"/>
      <path d="m 2204.5,1257.7 h 65.03 v 217.52 l 91.38,-94.74 91.39,94.74 V 1257.7 h 65.03 v 359.36 l -156.42,-158.1 -156.41,158.1 z m 372.26,176.04 c 0,-103.16 83.53,-183.33 188.93,-183.33 105.4,0 188.93,80.17 188.93,183.33 0,103.15 -83.53,183.32 -188.93,183.32 -105.4,0 -188.93,-80.17 -188.93,-183.32 z m 68.39,0 c 0,68.39 57.19,121.65 120.54,121.65 63.35,0 120.53,-53.26 120.53,-121.65 0,-68.4 -57.18,-121.66 -120.53,-121.66 -63.35,0 -120.54,53.26 -120.54,121.66 z m 660.98,-183.33 v 359.36 h -65.03 v -215.84 l -227.05,223.13 V 1257.7 h 65.03 v 215.84 z m 154.17,7.29 h 65.04 v 290.41 h 103.15 v 61.66 h -271.34 v -61.66 h 103.15 z m 196.79,176.04 c 0,-103.16 83.53,-183.33 188.93,-183.33 136.79,0 188.93,114.37 188.93,172.11 v 46.54 h -189.49 v -61.67 h 119.97 c -14.02,-59.99 -61.11,-95.31 -119.41,-95.31 -63.36,0 -120.54,53.26 -120.54,121.66 0,68.39 57.18,121.65 120.54,121.65 39.8,0 74,-18.5 96.43,-51.01 l 53.82,40.36 c -39.25,49.34 -94.19,72.32 -150.25,72.32 -105.4,0 -188.93,-80.17 -188.93,-183.32 z m 414.86,0 c 0,-103.16 83.53,-183.33 188.93,-183.33 105.4,0 188.93,80.17 188.93,183.33 0,103.15 -83.53,183.32 -188.93,183.32 -105.4,0 -188.93,-80.17 -188.93,-183.32 z m 68.39,0 c 0,68.39 57.19,121.65 120.54,121.65 63.35,0 120.54,-53.26 120.54,-121.65 0,-68.4 -57.19,-121.66 -120.54,-121.66 -63.35,0 -120.54,53.26 -120.54,121.66 z m 368.9,-176.04 h 65.03 v 217.52 l 91.39,-94.74 91.38,94.74 V 1257.7 h 65.03 v 359.36 l -156.41,-158.1 -156.42,158.1 z m 404.21,0 h 270.22 v 61.67 h -205.19 v 88.02 h 142.96 v 61.67 h -142.96 v 79.05 h 205.19 v 61.66 h -270.22 v -140.71 h -42.04 v -61.67 h 42.04 z m 342.55,0 h 65.03 v 111 h 79.61 l 73.44,-111 h 81.85 l -88.02,125.58 c 47.09,14.58 82.41,54.94 82.41,105.96 0,68.96 -48.21,120.53 -126.7,120.53 H 5256 v -179.4 h -42.05 V 1368.7 H 5256 Z m 65.03,290.41 h 97.55 c 45.97,0 66.71,-27.48 66.71,-58.87 0,-31.4 -20.74,-58.87 -66.71,-58.87 h -97.55 z m 355.43,-290.41 h 65.04 v 155.29 l 126.14,196.78 h -75.12 l -83.54,-136.79 -83.53,136.79 h -75.13 l 126.14,-196.78 V 1257.7" style="fill:#ffffff;fill-opacity:1;fill-rule:nonzero;stroke:none" id="path18"/>
      <path d="m 2195.35,422.953 h 483.72 c 148.64,0 260.79,81.039 260.79,210.707 0,92.621 -63.51,152.824 -151.34,177.141 63.51,24.308 104.05,77.566 104.05,144.719 0,129.67 -114.86,194.5 -244.57,194.5 H 2195.35 V 859.426 h -101.33 l 101.33,-127.352 z m 156.74,599.707 h 278.34 c 68.91,0 105.39,-38.195 105.39,-81.035 0,-43.992 -36.48,-82.199 -105.39,-82.199 h -278.34 z m 0,-290.586 h 309.43 c 70.25,0 121.61,-39.363 121.61,-91.469 0,-50.937 -51.36,-90.3 -121.61,-90.3 h -309.43 z m 729.64,-309.121 h 647.2 V 723.961 H 3572.2 V 550.305 h -333.73 v 599.715 h -156.74 z m 694.49,0 h 167.55 l 64.86,136.617 h 359.42 l 64.85,-136.617 h 168.89 l -359.41,727.067 h -351.31 l 97.19,-120.41 h 97.39 z m 289.16,257.02 124.3,260.488 122.96,-260.488 z m 645.86,-257.02 h 156.74 v 727.067 h -156.74 z m 387.79,0 h 156.73 v 229.238 h 191.87 l 177.01,-229.238 h 197.26 l -212.14,259.336 c 113.5,30.098 198.63,113.453 198.63,218.816 0,142.395 -116.19,248.915 -305.36,248.915 h -404 V 779.539 h -101.34 l 101.34,-127.348 z m 156.73,599.707 h 235.11 c 110.79,0 160.78,-56.722 160.78,-121.555 0,-64.835 -49.99,-121.566 -160.78,-121.566 h -235.11 v 243.121" style="fill:#ffffff;fill-opacity:1;fill-rule:nonzero;stroke:none" id="path20"/>
      <path d="m 2630.17,142.684 h 29.26 v 67.347 h 72.39 v -67.347 h 29.27 v 158.41 h -29.27 v -63.317 h -72.39 v 63.317 h -29.26 v -63.317 h -18.92 v -27.746 h 18.92 z m 326,0 h 29.26 v 158.41 h -29.26 z m 213.49,79.203 c 0,-46.41 37.59,-82.485 85.01,-82.485 61.54,0 85,51.461 85,77.442 v 20.933 h -85.26 v -27.746 h 53.98 c -6.3,-26.988 -27.49,-42.879 -53.72,-42.879 -28.51,0 -54.23,23.961 -54.23,54.735 0,30.773 25.72,54.738 54.23,54.738 17.91,0 33.29,-8.324 43.38,-22.957 l 24.22,18.164 c -17.66,22.195 -42.38,32.539 -67.6,32.539 -47.42,0 -85.01,-36.07 -85.01,-82.484 z m 356.52,-79.203 h 29.26 v 67.347 h 72.4 v -67.347 h 29.25 v 158.41 h -29.25 v -63.317 h -72.4 v 63.317 h -29.26 v -63.317 h -18.92 v -27.746 h 18.92 z m 534.95,25.98 c 19.93,-20.934 45.66,-29.262 67.85,-29.262 36.32,0 69.88,19.93 69.88,53.059 0,65.793 -102.16,30.309 -102.16,65.793 0,9.582 9.08,21.398 33.3,21.398 15.38,0 28.5,-4.793 42.88,-18.879 l 21.69,19.383 c -15.64,15.891 -36.83,24.215 -63.07,24.215 -36.06,0 -65.58,-19.422 -65.58,-47.633 0,-64.531 102.16,-30.476 102.16,-65.793 0,-15.175 -15.64,-23.539 -37.83,-23.793 -18.42,0 -35.07,8.871 -46.92,21.524 z m 440.51,20.43 c -10.09,-13.617 -25.98,-21.942 -43.89,-21.942 -28.5,0 -54.23,23.961 -54.23,54.735 0,30.773 25.73,54.738 54.23,54.738 17.91,0 33.3,-8.324 43.39,-22.957 l 24.22,18.164 c -17.66,22.195 -42.38,32.539 -67.61,32.539 -47.42,0 -85,-36.07 -85,-82.484 0,-46.41 37.58,-82.485 85,-82.485 25.23,0 49.95,10.344 67.61,32.539 z m 209.22,-46.41 h 29.25 v 67.347 h 72.4 v -67.347 h 29.26 v 158.41 h -29.26 v -63.317 h -72.4 v 63.317 h -29.25 v -63.317 h -18.93 v -27.746 h 18.93 z m 313.88,79.203 c 0,-46.41 37.58,-82.485 85.01,-82.485 47.42,0 85,36.075 85,82.485 0,46.414 -37.58,82.484 -85,82.484 -47.43,0 -85.01,-36.07 -85.01,-82.484 z m 30.78,0 c 0,30.773 25.72,54.738 54.23,54.738 28.5,0 54.23,-23.965 54.23,-54.738 0,-30.774 -25.73,-54.735 -54.23,-54.735 -28.51,0 -54.23,23.961 -54.23,54.735 z m 311.36,0 c 0,-46.41 37.58,-82.485 85,-82.485 47.43,0 85.01,36.075 85.01,82.485 0,46.414 -37.58,82.484 -85.01,82.484 -47.42,0 -85,-36.07 -85,-82.484 z m 30.77,0 c 0,30.773 25.73,54.738 54.23,54.738 28.51,0 54.24,-23.965 54.24,-54.738 0,-30.774 -25.73,-54.735 -54.24,-54.735 -28.5,0 -54.23,23.961 -54.23,54.735 z m 322.97,-79.203 h 120.83 v 65.582 h -29.27 V 170.43 h -62.3 v 130.664 h -29.26 v -158.41" style="fill:#ffffff;fill-opacity:1;fill-rule:nonzero;stroke:none" id="path22"/>
    </g>
  </g>
</svg>